<?xml version="1.0" standalone="no"?>
<!DOCTYPE svg PUBLIC "-//W3C//DTD SVG 20010904//EN"
 "http://www.w3.org/TR/2001/REC-SVG-20010904/DTD/svg10.dtd">
<svg version="1.0" xmlns="http://www.w3.org/2000/svg"
 width="500.000000pt" height="500.000000pt" viewBox="0 0 500.000000 500.000000"
 preserveAspectRatio="xMidYMid meet">
<metadata>
Created by potrace 1.11, written by Peter Selinger 2001-2013
</metadata>
<g transform="translate(0.000000,500.000000) scale(0.100000,-0.100000)"
fill="#000000" stroke="none">
<path d="M0 4614 l0 -390 218 -12 c256 -14 385 -30 621 -78 416 -83 841 -238
1206 -441 157 -87 457 -290 605 -409 539 -434 979 -1020 1244 -1657 193 -465
301 -954 322 -1464 l7 -163 389 0 388 0 0 58 c0 95 -20 378 -36 522 -78 687
-312 1380 -661 1962 -224 373 -438 651 -732 952 -912 929 -2090 1450 -3398
1502 l-173 7 0 -389z"/>
<path d="M0 3052 l0 -389 138 -6 c548 -25 1085 -230 1528 -582 120 -96 305
-279 398 -395 229 -286 421 -663 511 -1004 48 -179 85 -448 85 -608 l0 -68
392 0 391 0 -7 147 c-58 1278 -794 2394 -1951 2957 -421 205 -964 335 -1402
336 l-83 0 0 -388z"/>
<path d="M615 1481 c-272 -46 -508 -261 -587 -536 -29 -102 -31 -285 -4 -385
39 -145 127 -283 248 -386 73 -62 137 -97 248 -135 87 -30 106 -32 220 -33 70
0 145 6 170 13 258 71 438 226 529 453 41 102 55 191 48 317 -9 193 -73 336
-212 477 -146 148 -293 213 -495 219 -63 2 -137 0 -165 -4z"/>
</g>
</svg>
